# xmcd CD database file
#
# Track frame offsets:
#	150
#	13485
#	27177
#	39987
#	52507
#	62680
#	72990
#	85970
#	96270
#	108392
#
# Disc length: 1566 seconds
#
# Revision: 1
# Processed by: cddbd v1.4PL0 Copyright (c) Steve Scherf et al.
# Submitted via: CDex 1.40Release
#
DISCID=7b061c0a
DTITLE=Various Artist - Sought After Soul CD 1
DYEAR=1900
DGENRE=Soul
TTITLE0=The Professionals  - That's Why I Love You
TTITLE1=The People's Choice - Savin' My Lovin' For You
TTITLE2=The Parliaments - Heart Trouble
TTITLE3=Martha Star  - Love Is The Only Solution
TTITLE4=The Vondells - Hey Girl You've Changed
TTITLE5=L. Allen - Can't We Talk It  Over
TTITLE6=Billy Arnell and The Sparkles - Tough Girl  (Inst.)
TTITLE7=Paris - Sleepless Nights
TTITLE8=Troy Dodds - Try My Love
TTITLE9=The Del-Tours - Sweet And Lovely
EXTD=TIM1701 ID3G: 42
EXTT0=
EXTT1=
EXTT2=
EXTT3=
EXTT4=
EXTT5=
EXTT6=
EXTT7=
EXTT8=
EXTT9=
PLAYORDER=
